:version 1.10
:name ASF
:units
  mass 1
  length 1
  angle deg
:documentation
  ASF file generated by Kaydara
:root
  axis xyz
  order  tx ty tz rx ry rz
  position 0 0 0
  orientation 0 0 0
:bonedata
  begin
    id 1
    name RightUpLegDummy
    direction -1 2.30186e-007 8.31532e-007
    length 4.46685
    axis 0 0 0 xyz
  end
  begin
    id 2
    name RightUpLeg
    direction -2.30187e-007 -1 1.24343e-010
    length 16.4045
    axis -3.49089 -0.000906625 0.000286804 xyz
    dof rx ry rz
  end
  begin
    id 3
    name RightLeg
    direction -2.30181e-007 -1 -4.17157e-009
    length 17.5097
    axis 3.68512 0.0193738 -0.131023 xyz
    dof rx ry rz
  end
  begin
    id 4
    name RightFoot
    direction 8.31421e-007 -4.51202e-011 1
    length 6.49508
    axis 4.81691e-005 -0.120479 -0.188788 xyz
    dof rx ry rz
  end
  begin
    id 5
    name RightToes
    direction 0.00124746 -0.014064 0.9999
    length 3.85082
    axis 0.000481921 0.542163 -0.142578 xyz
    dof rx ry rz
  end
  begin
    id 6
    name SpineDummy
    direction 0.0717043 0.9409 -0.331007
    length 10.0032
    axis 0 0 0 xyz
  end
  begin
    id 7
    name Spine
    direction 2.30186e-007 1 4.58806e-011
    length 9.84055
    axis -0.001389 0.000121418 2.40972e-006 xyz
    dof rx ry rz
  end
  begin
    id 8
    name Spine1
    direction 0 0 0
    length 0
    axis -0.001389 0.000121451 1.30017e-006 xyz
    dof rx ry rz
  end
  begin
    id 9
    name HEadDummy
    direction -0.00347485 0.950688 -0.310128
    length 8.00997
    axis -0.001389 0.000121451 1.30017e-006 xyz
  end
  begin
    id 10
    name HEad
    direction -0.0222688 0.980941 0.193023
    length 5.12695
    axis -0.001389 0.000121451 1.30017e-006 xyz
    dof rx ry rz
  end
  begin
    id 11
    name LeftShoulder1Dummy
    direction 0.988871 0.146793 -0.0242004
    length 3.5792
    axis -0.001389 0.000121451 1.30017e-006 xyz
  end
  begin
    id 12
    name LeftShoulder1
    direction 0.993832 0.108932 0.020779
    length 4.16823
    axis -0.001389 0.000121451 1.30017e-006 xyz
    dof rx ry rz
  end
  begin
    id 13
    name LeftArm
    direction 1 3.44807e-006 -8.31404e-007
    length 9.91437
    axis -23.1894 0.134784 0.967509 xyz
    dof rx ry rz
  end
  begin
    id 14
    name LeftForeArm
    direction 1 3.44842e-006 -8.31581e-007
    length 9.08575
    axis -9.91835 -0.06569 -0.177793 xyz
    dof rx ry rz
  end
  begin
    id 15
    name LeftHand
    direction 0.992938 -0.0411636 0.11126
    length 5.32135
    axis -0.00960232 -0.00340091 0.185173 xyz
    dof rx ry rz
  end
  begin
    id 16
    name RightShoulderDummy
    direction -0.988871 0.146793 -0.0241962
    length 3.5792
    axis -0.001389 0.000121451 1.30017e-006 xyz
  end
  begin
    id 17
    name RightShoulder
    direction -0.993832 0.108933 0.0207785
    length 4.16823
    axis 0.215806 0.000203643 -0.0068026 xyz
    dof rx ry rz
  end
  begin
    id 18
    name RightArm
    direction -1 3.90912e-006 8.31284e-007
    length 9.91437
    axis -23.2009 -0.134239 -0.964101 xyz
    dof rx ry rz
  end
  begin
    id 19
    name RightForeArm
    direction -1 3.90882e-006 8.31502e-007
    length 9.08575
    axis -9.92322 0.0658061 0.178867 xyz
    dof rx ry rz
  end
  begin
    id 20
    name RightHand
    direction -0.992843 -0.0414603 0.112003
    length 5.28593
    axis -0.00960638 0.00330671 -0.185228 xyz
    dof rx ry rz
  end
  begin
    id 21
    name LeftUpLegDummy
    direction 1 -2.30186e-007 -8.31532e-007
    length 4.46685
    axis 0 0 0 xyz
  end
  begin
    id 22
    name LeftUpLeg
    direction -2.30187e-007 -1 6.00931e-010
    length 16.4045
    axis -3.48766 0.00143442 -0.000524262 xyz
    dof rx ry rz
  end
  begin
    id 23
    name LeftLeg
    direction -2.30187e-007 -1 1.6669e-009
    length 17.5097
    axis 3.68178 -0.00654042 -0.000285133 xyz
    dof rx ry rz
  end
  begin
    id 24
    name LeftFoot
    direction 8.31532e-007 -4.54478e-011 1
    length 6.49508
    axis 1.87233e-006 4.66016e-005 -8.6538e-006 xyz
    dof rx ry rz
  end
  begin
    id 25
    name LeftToes
    direction 0.00818058 -0.00485161 0.999955
    length 3.85048
    axis 1.06247e-005 4.65869e-005 -8.65513e-006 xyz
    dof rx ry rz
  end
:hierarchy
  begin
    root RightUpLegDummy SpineDummy LeftUpLegDummy
    RightUpLegDummy RightUpLeg
    RightUpLeg RightLeg
    RightLeg RightFoot
    RightFoot RightToes
    SpineDummy Spine
    Spine Spine1
    Spine1 HEadDummy LeftShoulder1Dummy RightShoulderDummy
    HEadDummy HEad
    LeftShoulder1Dummy LeftShoulder1
    LeftShoulder1 LeftArm
    LeftArm LeftForeArm
    LeftForeArm LeftHand
    RightShoulderDummy RightShoulder
    RightShoulder RightArm
    RightArm RightForeArm
    RightForeArm RightHand
    LeftUpLegDummy LeftUpLeg
    LeftUpLeg LeftLeg
    LeftLeg LeftFoot
    LeftFoot LeftToes
  end

:SAMPLES-PER-SECOND 30
:FULLY-SPECIFIED
:DEGREES
32
root  -1.20323 34.0365 0.591318 178.994 -2.59457 179.155
RightUpLeg  5.87271 -4.28425 -2.30938
RightLeg  1.40936 -0.346896 0.0142242
RightFoot  5.40237 0.0143722 -0.0616983
RightToes  -30.2464 -0.145621 -0.253675
Spine  1.35371 -1.84167 -1.10661
Spine1  2.72765 -3.65364 -2.35881
HEad  19.0413 0.29547 8.62063
LeftShoulder1  0 -2.42657e-020 -4.95415e-022
LeftArm  -75.3696 12.378 -6.61271
LeftForeArm  56.4697 -20.7535 -3.78676
LeftHand  0.476078 -6.03603 -9.39191
RightShoulder  0 2.42657e-020 1.07489e-018
RightArm  -73.1576 -15.8615 9.04489
RightForeArm  51.6583 12.3408 2.18142
RightHand  -0.530378 16.9344 -3.19286
LeftUpLeg  3.91753 5.69241 -0.0688712
LeftLeg  3.89614 -10.7224 -0.0403258
LeftFoot  3.16585 0.0207011 -0.617875
LeftToes  -5.58726 2.37847e-007 4.89147e-008
33
root  -1.07827 34.0376 0.547886 179.006 -2.34468 179.169
RightUpLeg  5.4615 -4.21538 -2.09034
RightLeg  2.21092 -0.221593 0.00635203
RightFoot  4.96471 0.013933 -0.0479231
RightToes  -29.8605 -0.142961 -0.250995
Spine  1.32561 -1.81659 -1.13684
Spine1  2.6709 -3.60621 -2.415
HEad  18.913 0.443883 9.20739
LeftShoulder1  0 -2.42657e-020 -4.95415e-022
LeftArm  -75.4766 12.8288 -6.81212
LeftForeArm  56.3792 -20.7302 -3.78226
LeftHand  0.457756 -5.89259 -9.25707
RightShoulder  0 2.42657e-020 1.07489e-018
RightArm  -73.3202 -15.6965 9.2929
RightForeArm  51.6998 12.2637 2.16715
RightHand  -0.571236 16.9378 -3.46637
LeftUpLeg  4.31933 6.18888 0.233979
LeftLeg  3.27543 -11.0321 0.0773864
LeftFoot  3.41994 0.0250539 -0.685524
LeftToes  -5.9738 2.37847e-007 4.89147e-008
34
root  -0.972297 34.03 0.520746 178.967 -2.36897 179.156
RightUpLeg  5.16867 -3.91319 -1.85361
RightLeg  2.93538 -0.623906 0.00899022
RightFoot  4.46167 0.0162111 -0.0755148
RightToes  -29.3859 -0.140411 -0.248374
Spine  1.35446 -1.81394 -1.17005
Spine1  2.72862 -3.59914 -2.4786
HEad  18.7614 0.386297 9.57865
LeftShoulder1  0 -2.42657e-020 -4.95415e-022
LeftArm  -75.5257 12.9582 -7.00871
LeftForeArm  55.9417 -20.6296 -3.76291
LeftHand  0.434651 -5.76344 -8.99916
RightShoulder  0 2.42657e-020 1.07489e-018
RightArm  -73.401 -15.7854 9.36571
RightForeArm  51.7206 12.5527 2.22037
RightHand  -0.605085 16.9269 -3.69618
LeftUpLeg  4.35845 5.9398 0.36746
LeftLeg  3.3453 -10.8306 0.0628461
LeftFoot  3.36155 0.0234834 -0.661116
LeftToes  -6.22073 2.37847e-007 4.89147e-008
35
root  -0.883297 34.0207 0.502116 178.89 -2.62001 179.138
RightUpLeg  5.01094 -4.11016 -1.74288
RightLeg  3.52948 -0.677008 0.00278968
RightFoot  4.04356 0.016591 -0.0729107
RightToes  -29.1167 -0.138001 -0.245876
Spine  1.41987 -1.8208 -1.20367
Spine1  2.86027 -3.60797 -2.54765
HEad  18.4772 0.137849 9.75371
LeftShoulder1  0 -2.42657e-020 -4.95415e-022
LeftArm  -75.1552 12.8192 -7.15339
LeftForeArm  56.133 -20.5616 -3.74882
LeftHand  0.413118 -5.78997 -8.5356
RightShoulder  0 2.42657e-020 1.07489e-018
RightArm  -72.8779 -16.0919 9.23044
RightForeArm  51.6435 12.939 2.29192
RightHand  -0.602074 16.8434 -3.6963
LeftUpLeg  4.07788 5.59249 0.455768
LeftLeg  4.02493 -10.7251 -0.0643181
LeftFoot  3.08896 0.0196945 -0.602232
LeftToes  -6.47023 2.37847e-007 4.89147e-008
36
root  -0.809911 34.016 0.479271 178.869 -2.93703 179.143
RightUpLeg  5.03981 -4.25644 -1.62109
RightLeg  3.6774 -0.850066 0.00109913
RightFoot  3.87926 0.0177701 -0.082098
RightToes  -28.8735 -0.136241 -0.244061
Spine  1.47646 -1.83397 -1.22437
Spine1  2.97502 -3.63003 -2.59462
HEad  18.246 -0.0827663 9.86843
LeftShoulder1  0 -2.42657e-020 -4.95415e-022
LeftArm  -75.089 12.5442 -7.23465
LeftForeArm  56.2398 -20.5659 -3.74945
LeftHand  0.410254 -5.75457 -8.52905
RightShoulder  0 2.42657e-020 1.07489e-018
RightArm  -72.2751 -16.377 8.97563
RightForeArm  51.8213 13.0178 2.30619
RightHand  -0.681815 16.8282 -4.23855
LeftUpLeg  3.80106 5.28456 0.549744
LeftLeg  4.57679 -10.688 -0.166523
LeftFoot  2.91851 0.017486 -0.56791
LeftToes  -6.79451 2.37847e-007 4.89147e-008
37
root  -0.747491 34.0106 0.445648 178.918 -3.11749 179.13
RightUpLeg  5.18526 -4.39696 -1.53481
RightLeg  3.46644 -0.881326 0.00430826
RightFoot  3.82174 0.0184511 -0.0830344
RightToes  -28.5965 -0.135052 -0.242837
Spine  1.48384 -1.84058 -1.22985
Spine1  2.9903 -3.64215 -2.60705
HEad  18.3179 -0.185914 9.89468
LeftShoulder1  0 -2.42657e-020 -4.95415e-022
LeftArm  -75.0209 12.435 -7.25225
LeftForeArm  56.3786 -20.539 -3.74375
LeftHand  0.407802 -5.71063 -8.54283
RightShoulder  0 2.42657e-020 1.07489e-018
RightArm  -72.0346 -16.4497 8.66378
RightForeArm  51.7757 12.9994 2.30286
RightHand  -0.781823 16.8185 -4.91677
LeftUpLeg  3.71689 4.99802 0.605262
LeftLeg  4.69519 -10.5725 -0.186493
LeftFoot  2.85305 0.0163046 -0.549549
LeftToes  -6.96655 2.37847e-007 4.89147e-008
38
root  -0.689457 34.0104 0.409048 178.978 -3.22757 179.12
RightUpLeg  5.23526 -4.52921 -1.46684
RightLeg  3.41381 -0.843628 0.00492754
RightFoot  3.74703 0.0188207 -0.0787232
RightToes  -28.3375 -0.134007 -0.241736
Spine  1.47211 -1.85969 -1.23804
Spine1  2.96745 -3.68064 -2.62073
HEad  18.5979 -0.170148 9.95185
LeftShoulder1  0 -2.42657e-020 -4.95415e-022
LeftArm  -74.7738 12.4633 -7.16597
LeftForeArm  56.4611 -20.4425 -3.7242
LeftHand  0.398068 -5.65231 -8.43067
RightShoulder  0 2.42657e-020 1.07489e-018
RightArm  -72.5399 -16.3279 8.49555
RightForeArm  52.1584 12.9925 2.30088
RightHand  -0.87551 16.9335 -5.50855
LeftUpLeg  3.79554 4.88505 0.680595
LeftLeg  4.49825 -10.5748 -0.15036
LeftFoot  2.95646 0.0175176 -0.568401
LeftToes  -7.17998 2.37847e-007 4.89147e-008
39
root  -0.644687 34.0137 0.378964 179.029 -3.25633 179.102
RightUpLeg  5.16407 -4.39128 -1.38015
RightLeg  3.5376 -1.02082 0.00359217
RightFoot  3.67639 0.020109 -0.0883669
RightToes  -28.1682 -0.133097 -0.240752
Spine  1.46785 -1.87988 -1.25039
Spine1  2.95993 -3.72161 -2.64174
HEad  18.8124 -0.136011 10.1082
LeftShoulder1  0 -2.42657e-020 -4.95415e-022
LeftArm  -74.7023 12.5221 -7.04603
LeftForeArm  56.3315 -20.3423 -3.70435
LeftHand  0.377408 -5.44073 -8.31077
RightShoulder  0 2.42657e-020 1.07489e-018
RightArm  -73.7486 -16.0093 8.55323
RightForeArm  52.8209 13.0232 2.30535
RightHand  -1.09396 17.5533 -6.70926
LeftUpLeg  3.92072 5.01655 0.765832
LeftLeg  4.23346 -10.7381 -0.103274
LeftFoot  3.11293 0.0199485 -0.60618
LeftToes  -7.42012 2.37847e-007 4.89147e-008
40
root  -0.611756 34.0145 0.35921 179.094 -3.28229 179.081
RightUpLeg  5.07092 -4.29202 -1.31596
RightLeg  3.65353 -1.1733 0.00164004
RightFoot  3.61259 0.0213055 -0.0963785
RightToes  -27.9498 -0.132315 -0.239883
Spine  1.49911 -1.90251 -1.25564
Spine1  3.02377 -3.76671 -2.65067
HEad  18.907 -0.180335 10.2331
LeftShoulder1  0 -2.42657e-020 -4.95415e-022
LeftArm  -75.0979 12.5344 -7.01904
LeftForeArm  55.5375 -20.3049 -3.69849
LeftHand  0.306453 -4.78049 -7.71274
RightShoulder  0 2.42657e-020 1.07489e-018
RightArm  -74.8318 -15.6428 8.62093
RightForeArm  53.2338 13.0072 2.30161
RightHand  -1.2944 17.8914 -7.84201
LeftUpLeg  3.99283 5.13066 0.81896
LeftLeg  4.00703 -10.8685 -0.061785
LeftFoot  3.26961 0.0223312 -0.643209
LeftToes  -7.59766 2.37847e-007 4.89147e-008
41
root  -0.59389 34.018 0.342571 179.162 -3.40237 179.059
RightUpLeg  4.99569 -4.18017 -1.26966
RightLeg  3.74863 -1.41712 -0.000546869
RightFoot  3.56387 0.0228844 -0.110226
RightToes  -27.6839 -0.131652 -0.239123
Spine  1.56352 -1.93052 -1.24648
Spine1  3.15427 -3.82146 -2.63384
HEad  18.7743 -0.385042 10.3273
LeftShoulder1  0 -2.42657e-020 -4.95415e-022
LeftArm  -75.2236 12.424 -7.04249
LeftForeArm  55.1207 -20.209 -3.68012
LeftHand  0.243099 -4.27118 -6.89323
RightShoulder  0 2.42657e-020 1.07489e-018
RightArm  -75.3581 -15.3188 8.56726
RightForeArm  53.8246 12.9104 2.28257
RightHand  -1.43445 18.0109 -8.66598
LeftUpLeg  3.99353 5.00129 0.801732
LeftLeg  3.87417 -10.8017 -0.0364967
LeftFoot  3.40553 0.0237293 -0.664938
LeftToes  -7.60869 2.37847e-007 4.89147e-008
42
root  -0.585646 34.0192 0.326365 179.225 -3.55669 179.035
RightUpLeg  4.9594 -4.27122 -1.25886
RightLeg  3.78777 -1.53895 -0.00171853
RightFoot  3.54855 0.0240013 -0.1169
RightToes  -27.4863 -0.1311 -0.238469
Spine  1.60392 -1.95493 -1.23662
Spine1  3.2366 -3.8691 -2.61475
HEad  18.678 -0.627682 10.387
LeftShoulder1  0 -2.42657e-020 -4.95415e-022
LeftArm  -75.0306 12.2146 -7.05054
LeftForeArm  55.277 -20.063 -3.65059
LeftHand  0.233528 -4.34303 -6.5332
RightShoulder  0 2.42657e-020 1.07489e-018
RightArm  -75.7725 -15.0134 8.51463
RightForeArm  54.644 12.9239 2.28349
RightHand  -1.64353 18.4829 -9.70913
LeftUpLeg  4.04067 4.94903 0.795027
LeftLeg  3.66165 -10.8946 0.00338838
LeftFoot  3.56261 0.0260095 -0.700375
LeftToes  -7.7607 2.37847e-007 4.89147e-008
43
root  -0.587063 34.0223 0.320649 179.294 -3.7354 179.019
RightUpLeg  4.92245 -4.34447 -1.27142
RightLeg  3.78522 -1.63819 -0.00181733
RightFoot  3.57152 0.0251122 -0.123584
RightToes  -27.3438 -0.130651 -0.237917
Spine  1.6466 -1.98278 -1.22126
Spine1  3.32398 -3.9237 -2.58644
HEad  18.6046 -0.861885 10.4106
LeftShoulder1  0 -2.42657e-020 -4.95415e-022
LeftArm  -74.7415 11.956 -7.08051
LeftForeArm  55.6286 -20.0049 -3.63828
LeftHand  0.258437 -4.61664 -6.78477
RightShoulder  0 2.42657e-020 1.07489e-018
RightArm  -76.3861 -14.6241 8.45297
RightForeArm  54.9153 12.8679 2.2726
RightHand  -1.72974 18.638 -10.1456
LeftUpLeg  4.04915 5.03766 0.807836
LeftLeg  3.47623 -11.1649 0.039405
LeftFoot  3.69674 0.0288202 -0.744058
LeftToes  -7.77811 2.37847e-007 4.89147e-008
44
root  -0.592104 34.0264 0.31722 179.425 -3.98828 178.994
RightUpLeg  4.88342 -4.56292 -1.31148
RightLeg  3.69673 -1.67155 0.000691267
RightFoot  3.62618 0.0259556 -0.12632
RightToes  -27.3908 -0.130297 -0.237463
Spine  1.65013 -2.01527 -1.20356
Spine1  3.33238 -3.98788 -2.54948
HEad  18.5853 -1.09181 10.4648
LeftShoulder1  0 -2.42657e-020 -4.95415e-022
LeftArm  -74.3488 11.5666 -7.09418
LeftForeArm  55.8071 -19.7149 -3.58009
LeftHand  0.307891 -4.99805 -7.42596
RightShoulder  0 2.42657e-020 1.07489e-018
RightArm  -76.5966 -14.3595 8.24737
RightForeArm  54.9507 12.9455 2.28688
RightHand  -1.65461 18.476 -9.78054
LeftUpLeg  4.03498 4.89469 0.760962
LeftLeg  3.18107 -11.2611 0.0974178
LeftFoot  3.90793 0.0318691 -0.791442
LeftToes  -7.95398 2.37847e-007 4.89147e-008
45
root  -0.609771 34.0294 0.335186 179.718 -4.2592 178.937
RightUpLeg  4.65881 -4.89363 -1.40187
RightLeg  3.59264 -1.62119 0.00362308
RightFoot  3.66582 0.0264254 -0.123565
RightToes  -27.4047 -0.13003 -0.237102
Spine  1.59116 -2.06407 -1.19753
Spine1  3.21661 -4.08632 -2.53488
HEad  18.6628 -1.27012 10.543
LeftShoulder1  0 -2.42657e-020 -4.95415e-022
LeftArm  -73.3809 11.277 -7.13323
LeftForeArm  55.089 -19.5315 -3.54511
LeftHand  0.348598 -5.24219 -7.98417
RightShoulder  0 2.42657e-020 1.07489e-018
RightArm  -77.2964 -14.0337 8.01315
RightForeArm  55.8088 12.91 2.2786
RightHand  -1.46434 18.5281 -8.59259
LeftUpLeg  3.76434 4.5849 0.613141
LeftLeg  3.00883 -11.1848 0.130198
LeftFoot  4.05544 0.0333479 -0.814424
LeftToes  -7.8758 2.37847e-007 4.89147e-008
46
root  -0.619529 34.0319 0.345124 179.833 -4.33493 178.939
RightUpLeg  4.66781 -4.52948 -1.33682
RightLeg  3.34884 -2.04976 0.0130178
RightFoot  3.76617 0.0290663 -0.154934
RightToes  -27.2947 -0.129841 -0.236831
Spine  1.5687 -2.0518 -1.19319
Spine1  3.17353 -4.06157 -2.52791
HEad  18.906 -1.39938 10.6885
LeftShoulder1  0 -2.42657e-020 -4.95415e-022
LeftArm  -73.7181 10.7948 -7.16306
LeftForeArm  55.512 -19.4824 -3.53451
LeftHand  0.360323 -5.38343 -8.03309
RightShoulder  0 2.42657e-020 1.07489e-018
RightArm  -76.8601 -13.6506 7.79053
RightForeArm  55.76 12.7252 2.24453
RightHand  -1.13529 18.3506 -6.65244
LeftUpLeg  3.65665 4.64275 0.609356
LeftLeg  2.94573 -11.3361 0.144353
LeftFoot  4.10791 0.0347501 -0.836218
LeftToes  -7.80587 2.37847e-007 4.89147e-008
